<svg width="168" height="36" viewBox="0 0 168 36" fill="none" xmlns="http://www.w3.org/2000/svg"><mask id="a" style="mask-type:luminance" maskUnits="userSpaceOnUse" x="0" y="0" width="168" height="36"><path d="M167.335 0H0v36h167.335V0Z" fill="#fff"/></mask><g mask="url(#a)"><path d="M14.327 23.777c-1.064.57-2.266.866-3.567.866-1.202 0-2.286-.236-3.232-.709-.946-.472-1.714-1.122-2.286-1.948-.571-.827-.926-1.791-1.064-2.874h14.918c.02-.236.04-.512.08-.767.019-.276.039-.532.039-.807-.02-1.89-.434-3.583-1.222-5.059a8.499 8.499 0 0 0-3.33-3.445c-1.42-.826-3.055-1.24-4.868-1.24-1.814 0-3.587.414-5.085 1.26-1.498.827-2.64 2.008-3.468 3.504C.414 14.054 0 15.746 0 17.656c0 1.988.453 3.779 1.36 5.353a9.48 9.48 0 0 0 3.764 3.661c1.596.866 3.429 1.32 5.478 1.32 1.4 0 2.7-.198 3.922-.611 1.203-.413 2.267-.965 3.153-1.693.907-.728 1.538-1.575 1.932-2.52l-2.996-1.593c-.473.905-1.241 1.653-2.306 2.224M5.204 13.463a5.662 5.662 0 0 1 1.931-1.81c.788-.453 1.655-.67 2.621-.67s1.853.197 2.601.61c.75.414 1.36.984 1.814 1.732.453.748.729 1.673.827 2.795H4.178c.177-1.004.512-1.89 1.025-2.657Zm43.552-4.862c-.965-.55-2.108-.826-3.409-.826-1.4 0-2.7.295-3.863.905-1.162.61-2.168 1.516-3.015 2.756h-.04c-.512-1.181-1.26-2.087-2.246-2.717-.966-.63-2.168-.925-3.567-.944H22.25V27.22h3.98V16.888c0-1.634.434-2.972 1.302-4.016.867-1.062 2.03-1.594 3.508-1.594 1.26 0 2.226.354 2.896 1.063.67.709 1.025 1.693 1.025 2.913l.04 11.948h3.98V16.868c0-1.082.178-2.047.552-2.893.375-.847.927-1.516 1.656-1.988a4.68 4.68 0 0 1 2.542-.729c1.222 0 2.188.355 2.877 1.063.69.709 1.025 1.693 1.025 2.914v11.947h4.02V14.664c0-1.437-.236-2.657-.748-3.7-.513-1.044-1.222-1.85-2.188-2.402" fill="#69BEBC"/><path d="M70.493 9.093c-1.4-.866-2.956-1.299-4.71-1.299-1.38 0-2.64.296-3.803.906-1.163.61-2.149 1.496-2.957 2.677h-.039V0h-4v27.241h3.409l.512-2.913h.04c.788 1.161 1.754 2.047 2.916 2.677 1.163.63 2.464.945 3.922.945 1.715 0 3.291-.433 4.67-1.32 1.4-.865 2.484-2.066 3.292-3.581.808-1.516 1.202-3.248 1.202-5.177 0-1.929-.394-3.68-1.183-5.177-.788-1.515-1.872-2.716-3.27-3.582m-.356 12.066c-.512 1.004-1.241 1.81-2.168 2.381a5.772 5.772 0 0 1-3.094.867c-1.143 0-2.207-.296-3.113-.886-.926-.59-1.636-1.378-2.168-2.382-.512-1.004-.769-2.106-.769-3.307 0-1.2.257-2.303.769-3.287a6.107 6.107 0 0 1 2.168-2.362c.926-.59 1.97-.885 3.113-.885s2.188.295 3.094.885c.907.59 1.617 1.378 2.149 2.362.512.985.768 2.087.768 3.287 0 1.201-.256 2.323-.768 3.327M89.806 8.483c-.847-.492-1.813-.748-2.897-.748a5.396 5.396 0 0 0-3.192 1.004 6.265 6.265 0 0 0-2.168 2.697h-.04l-.551-2.953h-3.252v18.738h4V17.183c0-1.26.178-2.322.533-3.228.355-.905.867-1.594 1.537-2.086a3.818 3.818 0 0 1 2.325-.748c.887 0 1.656.334 2.227 1.004.572.669.926 1.555 1.025 2.696l3.469-1.023c-.158-1.26-.473-2.323-.986-3.228-.512-.906-1.182-1.595-2.03-2.087ZM97.551.06c-.532 0-1.005.117-1.4.334a2.32 2.32 0 0 0-.925.925 2.657 2.657 0 0 0-.335 1.299c0 .787.236 1.437.748 1.929.493.492 1.144.748 1.932.748a2.86 2.86 0 0 0 1.38-.335c.413-.216.729-.531.945-.925.217-.394.335-.866.335-1.397 0-.768-.236-1.378-.729-1.85-.473-.473-1.123-.71-1.931-.71m1.932 8.405h-4.02v18.738h4.02V8.483Zm19.056 2.874h-.039c-.788-1.18-1.754-2.067-2.897-2.677-1.143-.61-2.424-.905-3.823-.905-1.774 0-3.351.433-4.75 1.299-1.399.866-2.483 2.066-3.252 3.582-.768 1.516-1.162 3.248-1.162 5.177 0 1.929.394 3.68 1.182 5.176.788 1.516 1.872 2.716 3.272 3.583 1.399.866 2.975 1.318 4.749 1.318 1.439 0 2.72-.315 3.863-.944 1.143-.63 2.108-1.516 2.897-2.677h.039l.552 2.913h3.37V0h-3.981v11.357h-.02Zm-.65 9.802a5.978 5.978 0 0 1-2.148 2.382c-.907.59-1.951.886-3.094.886a5.638 5.638 0 0 1-3.055-.867c-.926-.57-1.636-1.377-2.168-2.381-.512-1.004-.768-2.106-.768-3.327 0-1.22.256-2.303.768-3.287a6.064 6.064 0 0 1 2.148-2.362c.907-.59 1.932-.885 3.075-.885 1.143 0 2.187.295 3.094.885a6.211 6.211 0 0 1 2.148 2.362c.512.985.769 2.087.769 3.287 0 1.201-.257 2.303-.769 3.307Zm46.43.394c-.473.905-1.242 1.653-2.306 2.224-1.064.57-2.266.866-3.567.866-1.202 0-2.286-.236-3.232-.709-.946-.472-1.714-1.122-2.286-1.948-.571-.827-.926-1.791-1.064-2.874h14.918c.02-.236.04-.512.079-.767.02-.276.04-.532.04-.807-.02-1.89-.434-3.583-1.222-5.059a8.495 8.495 0 0 0-3.331-3.445c-1.419-.826-3.054-1.24-4.867-1.24-1.813 0-3.587.414-5.085 1.26-1.498.827-2.641 2.008-3.468 3.504-.828 1.496-1.242 3.188-1.242 5.098 0 1.988.453 3.779 1.36 5.353a9.477 9.477 0 0 0 3.764 3.661c1.596.866 3.429 1.32 5.479 1.32 1.399 0 2.7-.198 3.921-.611 1.203-.413 2.267-.965 3.154-1.693.906-.728 1.537-1.575 1.931-2.52l-2.996-1.593.02-.02Zm-11.43-8.09a5.66 5.66 0 0 1 1.931-1.81c.788-.453 1.656-.67 2.621-.67.966 0 1.853.197 2.602.61a4.793 4.793 0 0 1 1.813 1.732c.453.748.729 1.673.827 2.795h-10.819c.177-1.004.512-1.89 1.025-2.657Zm-18.702-5.57h-.69c-1.438.138-2.759.531-3.902 1.22-1.36.807-2.404 1.949-3.133 3.425-.729 1.476-1.104 3.189-1.104 5.137 0 1.949.375 3.523 1.104 4.98.749 1.456 1.793 2.578 3.153 3.385 1.36.807 2.936 1.201 4.71 1.201a7.79 7.79 0 0 0 2.463-.413 9.614 9.614 0 0 0 2.306-1.122 6.675 6.675 0 0 0 1.774-1.713h.039l.04 1.595c0 1.319-.296 2.5-.887 3.484-.591 1.003-1.419 1.771-2.483 2.342-1.064.57-2.267.846-3.626.846a9.328 9.328 0 0 1-4.375-1.063c-1.36-.708-2.424-1.614-3.154-2.716l-2.404 2.775c.907 1.32 2.286 2.402 4.139 3.228 1.852.827 3.843 1.24 5.991 1.24 2.148 0 4.059-.413 5.695-1.26a9.005 9.005 0 0 0 3.764-3.562c.887-1.535 1.34-3.287 1.34-5.255V7.893h-10.76Zm6.149 12.872a5.727 5.727 0 0 1-2.07 2.205c-.867.531-1.872.807-3.015.807s-2.187-.256-3.094-.748c-.906-.512-1.616-1.22-2.089-2.185a6.926 6.926 0 0 1-.729-3.15c0-1.298.237-2.44.729-3.404a5.186 5.186 0 0 1 2.07-2.244c.906-.531 1.931-.807 3.113-.807 1.183 0 2.148.275 3.035.827.887.55 1.577 1.318 2.069 2.283.493.964.749 2.086.749 3.346a6.546 6.546 0 0 1-.749 3.07" fill="#004B98"/><path d="M23.274 35.666a2.348 2.348 0 0 1-.965-.945c-.237-.394-.355-.866-.355-1.378 0-.512.099-.925.315-1.3a2.46 2.46 0 0 1 .887-.905c.375-.216.828-.315 1.3-.315.474 0 .888.099 1.262.315.375.217.65.512.848.886.197.374.295.807.315 1.3v.216c0 .078 0 .138-.02.197h-3.823c.04.275.118.531.276.747a1.6 1.6 0 0 0 .591.493c.237.118.512.177.828.177.335 0 .63-.079.906-.217a1.28 1.28 0 0 0 .592-.57l.768.413c-.098.236-.276.453-.492.65a2.646 2.646 0 0 1-.809.432c-.315.099-.65.158-1.005.158a2.94 2.94 0 0 1-1.399-.335m2.503-2.736a1.505 1.505 0 0 0-.217-.708 1.304 1.304 0 0 0-.473-.453 1.463 1.463 0 0 0-.67-.157c-.256 0-.473.058-.67.177a1.415 1.415 0 0 0-.492.472 1.523 1.523 0 0 0-.257.689h2.779v-.02Zm5.833-1.929c.256.138.453.355.591.63.138.276.217.61.217.984v3.15h-1.025V32.83c0-.354-.098-.63-.295-.846-.197-.217-.454-.315-.769-.315a1.46 1.46 0 0 0-.71.177 1.282 1.282 0 0 0-.512.512 1.489 1.489 0 0 0-.197.728v2.697h-1.025V30.98h.907l.138.689c.216-.276.453-.492.749-.63.295-.157.63-.216 1.005-.216.354 0 .67.078.926.216m1.3-.039h1.085l1.399 3.937h.02l1.418-3.936h1.084l-1.852 4.802h-1.3l-1.853-4.802Zm5.873-1.023c-.137-.118-.197-.295-.197-.492 0-.118.02-.236.08-.335a.678.678 0 0 1 .236-.236.675.675 0 0 1 .355-.079c.216 0 .374.06.492.178a.638.638 0 0 1 .178.472c0 .138-.02.256-.08.354a.679.679 0 0 1-.236.237.676.676 0 0 1-.355.078c-.197 0-.374-.059-.492-.197m-.02 1.044h1.025v4.802h-1.025v-4.802ZM44.125 31c.217.119.394.296.532.532.119.236.217.512.256.827l-.886.256a1.208 1.208 0 0 0-.257-.69.71.71 0 0 0-.571-.255c-.237 0-.434.059-.591.197-.178.118-.296.295-.394.531-.099.236-.138.512-.138.827v2.578H41.05v-4.802h.828l.137.767a1.5 1.5 0 0 1 .552-.689c.237-.177.513-.256.828-.256.276 0 .532.06.749.197m2.582 4.645a2.406 2.406 0 0 1-.926-.905 2.72 2.72 0 0 1-.335-1.358c0-.532.118-.984.335-1.378.217-.394.532-.689.926-.905.394-.217.848-.315 1.36-.315.512 0 .985.098 1.38.315.394.216.709.511.926.905.216.394.335.846.335 1.378 0 .531-.118.964-.335 1.358a2.278 2.278 0 0 1-.927.905 2.805 2.805 0 0 1-1.38.335c-.531 0-.965-.118-1.359-.335Zm2.207-.767c.237-.138.434-.335.552-.59.138-.257.197-.552.197-.886 0-.335-.059-.65-.197-.906a1.454 1.454 0 0 0-.552-.59 1.694 1.694 0 0 0-.847-.217 1.62 1.62 0 0 0-.828.217 1.334 1.334 0 0 0-.552.59c-.138.256-.197.551-.197.906 0 .354.06.63.197.885.138.256.316.453.552.59.237.139.513.217.828.217.315 0 .61-.078.847-.216Zm6.445-3.878c.256.138.453.355.591.63.138.276.217.61.217.984v3.15h-1.025V32.83c0-.354-.098-.63-.295-.846-.197-.217-.454-.315-.769-.315-.256 0-.493.059-.71.177a1.28 1.28 0 0 0-.512.512 1.488 1.488 0 0 0-.197.728v2.697h-1.025V30.98h.907l.138.689c.217-.276.453-.492.749-.63.295-.157.63-.216 1.005-.216.355 0 .67.078.926.216M57.25 31h.867l.138.69a1.48 1.48 0 0 1 .65-.65 2.08 2.08 0 0 1 .986-.236c.355 0 .67.078.926.236.256.157.453.393.572.689.216-.315.473-.551.768-.709.296-.157.63-.236.986-.236.335 0 .63.079.886.216.257.138.434.355.572.61.138.276.197.591.197.945v3.209h-1.025v-3.07c0-.316-.079-.572-.256-.749-.177-.177-.414-.275-.749-.275-.236 0-.473.059-.65.177a1.107 1.107 0 0 0-.434.512 1.81 1.81 0 0 0-.138.747v2.658h-1.024v-3.07c0-.316-.099-.572-.276-.749-.178-.177-.414-.275-.75-.275-.374 0-.689.137-.906.413-.217.276-.335.61-.335 1.023v2.658H57.23V30.96l.02.04Zm9.775 4.666a2.348 2.348 0 0 1-.966-.945c-.237-.394-.355-.866-.355-1.378 0-.512.099-.925.315-1.3a2.46 2.46 0 0 1 .887-.905c.375-.216.828-.315 1.3-.315.474 0 .888.099 1.262.315.375.217.65.512.848.886.197.374.295.807.315 1.3v.216c0 .078 0 .138-.02.197h-3.823c.04.275.118.531.276.747a1.6 1.6 0 0 0 .591.493c.237.118.513.177.828.177.335 0 .63-.079.906-.217a1.28 1.28 0 0 0 .592-.57l.768.413c-.098.236-.276.453-.492.65a2.646 2.646 0 0 1-.809.432c-.315.099-.65.158-1.005.158a2.94 2.94 0 0 1-1.399-.335m2.523-2.736a1.505 1.505 0 0 0-.217-.708 1.304 1.304 0 0 0-.473-.453 1.463 1.463 0 0 0-.67-.157c-.256 0-.473.058-.67.177a1.415 1.415 0 0 0-.493.472 1.523 1.523 0 0 0-.256.689h2.779v-.02Zm5.813-1.929c.257.138.454.355.592.63.138.276.217.61.217.984v3.15h-1.025V32.83c0-.354-.098-.63-.296-.846-.197-.217-.453-.315-.768-.315a1.46 1.46 0 0 0-.71.177 1.28 1.28 0 0 0-.512.512 1.489 1.489 0 0 0-.197.728v2.697h-1.025V30.98h.907l.138.689c.217-.276.453-.492.749-.63.295-.157.63-.216 1.005-.216.354 0 .67.078.926.216m3.093 4.744a1.5 1.5 0 0 1-.591-.57 1.613 1.613 0 0 1-.217-.827v-2.598h-1.005v-.807h1.005v-1.398l1.025-.236v1.614h2.089v.807h-2.089v2.46c0 .178.04.335.099.453a.716.716 0 0 0 .275.315.73.73 0 0 0 .414.118.93.93 0 0 0 .63-.236c.178-.157.316-.374.375-.67l.631.473a1.554 1.554 0 0 1-.65.925 1.92 1.92 0 0 1-1.143.355c-.335 0-.631-.06-.887-.197M84.505 31h.867l.138.69a1.48 1.48 0 0 1 .65-.65 2.08 2.08 0 0 1 .986-.236c.355 0 .67.078.926.236.256.157.453.393.572.689.216-.315.473-.551.768-.709.296-.157.63-.236.985-.236.336 0 .631.079.887.216.257.138.434.355.572.61.138.276.197.591.197.945v3.209h-1.025v-3.07c0-.316-.079-.572-.256-.749-.177-.177-.414-.275-.749-.275-.236 0-.473.059-.65.177a1.106 1.106 0 0 0-.434.512 1.81 1.81 0 0 0-.138.747v2.658h-1.025v-3.07c0-.316-.098-.572-.275-.749-.178-.177-.414-.275-.75-.275-.374 0-.69.137-.906.413-.217.276-.335.61-.335 1.023v2.658h-1.025V30.96l.02.04Zm9.263 4.783a1.444 1.444 0 0 1-.65-.53 1.251 1.251 0 0 1-.237-.749c0-.413.177-.767.532-1.043.355-.276.867-.453 1.557-.532l1.123-.137a.42.42 0 0 0 .296-.138.357.357 0 0 0 .118-.276.601.601 0 0 0-.138-.393c-.099-.118-.236-.197-.414-.276a2.017 2.017 0 0 0-.63-.098c-.237 0-.473.04-.67.157-.198.099-.375.217-.493.374a1.02 1.02 0 0 0-.217.473L93 32.3c.04-.276.158-.532.355-.768a2.26 2.26 0 0 1 .828-.551 3.03 3.03 0 0 1 1.143-.217c.413 0 .808.08 1.143.217.335.157.59.354.768.63.177.275.276.59.276.925v2.244s.02.157.06.197a.18.18 0 0 0 .157.078.32.32 0 0 0 .177-.059.464.464 0 0 0 .158-.177l.433.61c-.098.138-.256.256-.472.354a1.715 1.715 0 0 1-.611.138c-.178 0-.316-.039-.454-.098a.842.842 0 0 1-.315-.276.974.974 0 0 1-.158-.393v-.118a1.966 1.966 0 0 1-.433.472 2.128 2.128 0 0 1-.591.315c-.217.079-.454.098-.73.098-.354 0-.67-.059-.946-.197m1.971-.767c.217-.118.394-.276.532-.473.138-.196.197-.413.197-.669v-.295l-1.34.157c-.414.04-.729.138-.926.276-.197.138-.296.315-.296.492a.57.57 0 0 0 .296.512c.197.118.453.177.788.177.276 0 .532-.059.75-.177Zm4.137.826a1.5 1.5 0 0 1-.591-.57 1.613 1.613 0 0 1-.217-.827v-2.598h-1.005v-.807h1.005v-1.398l1.025-.236v1.614h2.089v.807h-2.089v2.46c0 .178.039.335.098.453.06.138.158.236.276.315a.733.733 0 0 0 .414.118.932.932 0 0 0 .631-.236c.177-.157.315-.374.374-.67l.631.473a1.555 1.555 0 0 1-.65.925c-.335.236-.71.355-1.144.355-.335 0-.63-.06-.886-.197m4.69.019a1.501 1.501 0 0 1-.591-.57 1.614 1.614 0 0 1-.217-.827v-2.598h-1.005v-.807h1.005v-1.398l1.025-.236v1.614h2.089v.807h-2.089v2.46c0 .178.04.335.099.453a.712.712 0 0 0 .276.315.729.729 0 0 0 .414.118.93.93 0 0 0 .63-.236 1.18 1.18 0 0 0 .375-.67l.63.473a1.551 1.551 0 0 1-.65.925c-.335.236-.71.355-1.143.355-.335 0-.631-.06-.887-.197m4.553-.098a2.345 2.345 0 0 1-.966-.945c-.237-.394-.355-.866-.355-1.378 0-.512.099-.925.316-1.3a2.44 2.44 0 0 1 .886-.905c.375-.216.828-.315 1.301-.315s.887.099 1.261.315c.375.217.651.512.848.886.197.374.295.807.315 1.3v.216c0 .078 0 .138-.02.197h-3.823c.04.275.118.531.276.747a1.6 1.6 0 0 0 .591.493c.237.118.513.177.828.177.335 0 .631-.079.907-.217.275-.138.472-.334.591-.57l.768.413c-.098.236-.276.453-.492.65a2.656 2.656 0 0 1-.808.432 3.364 3.364 0 0 1-1.005.158 2.94 2.94 0 0 1-1.4-.335m2.503-2.736c-.02-.275-.098-.531-.217-.708a1.302 1.302 0 0 0-.473-.453 1.46 1.46 0 0 0-.67-.157c-.256 0-.473.058-.67.177a1.412 1.412 0 0 0-.492.472 1.53 1.53 0 0 0-.257.689h2.779v-.02ZM116.785 31c.217.119.394.296.532.532.119.236.217.512.257.827l-.887.256a1.217 1.217 0 0 0-.256-.69.711.711 0 0 0-.572-.255c-.236 0-.434.059-.591.197-.178.118-.296.295-.394.531-.099.236-.138.512-.138.827v2.578h-1.025v-4.802h.828l.138.767c.118-.295.315-.531.551-.689.237-.177.513-.256.828-.256.276 0 .532.06.749.197m2.405 4.764a2.373 2.373 0 0 1-.847-.571 1.478 1.478 0 0 1-.355-.906l.965-.157c.02.197.099.374.217.531.118.158.296.276.493.355.217.078.433.137.709.137.217 0 .434-.039.611-.098a1.07 1.07 0 0 0 .414-.256.491.491 0 0 0 .158-.354c0-.158-.079-.295-.256-.394a2.589 2.589 0 0 0-.828-.256l-.769-.137c-.532-.099-.906-.256-1.143-.473-.236-.216-.335-.512-.335-.886 0-.295.079-.55.237-.767.157-.236.374-.414.67-.532a2.27 2.27 0 0 1 .985-.197c.375 0 .67.06.966.178.295.118.532.275.729.472.197.197.315.433.355.709l-.926.216a.808.808 0 0 0-.355-.551 1.428 1.428 0 0 0-.789-.216c-.177 0-.354.039-.492.098a.857.857 0 0 0-.335.236.533.533 0 0 0-.118.335c0 .138.059.256.197.334.138.079.354.158.67.236l.768.138c.591.118 1.025.295 1.281.512.256.217.394.512.394.905 0 .296-.098.571-.276.827-.177.236-.453.433-.768.57a2.93 2.93 0 0 1-1.123.217c-.414 0-.808-.059-1.143-.196" fill="#69BEBC"/></g></svg>